<?xml version="1.0" encoding="UTF-8" standalone="no"?>
<!-- Created with Inkscape (http://www.inkscape.org/) -->

<svg
   xmlns:dc="http://purl.org/dc/elements/1.1/"
   xmlns:cc="http://creativecommons.org/ns#"
   xmlns:rdf="http://www.w3.org/1999/02/22-rdf-syntax-ns#"
   xmlns:svg="http://www.w3.org/2000/svg"
   xmlns="http://www.w3.org/2000/svg"
   xmlns:sodipodi="http://sodipodi.sourceforge.net/DTD/sodipodi-0.dtd"
   xmlns:inkscape="http://www.inkscape.org/namespaces/inkscape"
   width="201"
   height="201"
   viewBox="0 0 53.181248 53.181251"
   version="1.1"
   id="svg5906"
   inkscape:version="0.92.2 (5c3e80d, 2017-08-06)"
   sodipodi:docname="logocod.svg">
  <defs
     id="defs5900" />
  <sodipodi:namedview
     id="base"
     pagecolor="#ffffff"
     bordercolor="#666666"
     borderopacity="1.0"
     inkscape:pageopacity="0.0"
     inkscape:pageshadow="2"
     inkscape:zoom="1.979899"
     inkscape:cx="157.2337"
     inkscape:cy="98.480651"
     inkscape:document-units="mm"
     inkscape:current-layer="layer1"
     showgrid="false"
     units="px"
     inkscape:window-width="1842"
     inkscape:window-height="1051"
     inkscape:window-x="69"
     inkscape:window-y="-9"
     inkscape:window-maximized="1" />
  <metadata
     id="metadata5903">
    <rdf:RDF>
      <cc:Work
         rdf:about="">
        <dc:format>image/svg+xml</dc:format>
        <dc:type
           rdf:resource="http://purl.org/dc/dcmitype/StillImage" />
        <dc:title></dc:title>
      </cc:Work>
    </rdf:RDF>
  </metadata>
  <g
     inkscape:label="Layer 1"
     inkscape:groupmode="layer"
     id="layer1"
     transform="translate(0,-243.81874)">
    <g
       id="g1352"
       transform="matrix(0.99991574,0,0,0.99991574,-109.38437,-12.851803)"
       style="fill:#ffffff">
      <g
         transform="matrix(1.0003767,0,0,1.0000916,1.1752513,-8.5416688)"
         id="g1303"
         style="fill:#ffffff">
        <path
           inkscape:connector-curvature="0"
           style="opacity:1;fill:#ffffff;fill-opacity:1;stroke:none;stroke-width:2.11076665;stroke-linecap:round;stroke-linejoin:round;stroke-miterlimit:4;stroke-dasharray:none;stroke-dashoffset:50;stroke-opacity:1;paint-order:stroke fill markers"
           d="m 511.46289,1003.0918 a 99.999998,99.999998 0 0 0 -6.55859,0.066 99.999998,99.999998 0 0 0 -81.88477,49.8887 99.999998,99.999998 0 0 0 36.60156,136.6035 99.999998,99.999998 0 0 0 136.60352,-36.6035 99.999998,99.999998 0 0 0 5.13281,-89.5 l -19.70312,34.1289 a 45.626271,45.626271 0 0 0 -21.16407,-29.1387 l -22.9414,38.9297 -13.73828,23.9824 c 10.48877,6.0557 22.03527,10.1509 33.29883,7.6758 a 59.694912,59.694912 0 0 1 -77.33594,15.6191 59.694912,59.694912 0 0 1 -21.84961,-81.5449 59.694912,59.694912 0 0 1 51.47851,-29.7734 l 21.87696,-37.8887 a 99.999998,99.999998 0 0 0 -19.81641,-2.4453 z m 31.31836,5.6797 a 99.999996,99.999996 0 0 1 4.65625,1.8262 99.999998,99.999998 0 0 0 -4.65625,-1.8262 z m 9.23828,3.7773 a 99.999996,99.999996 0 0 1 7.54883,3.8692 99.999998,99.999998 0 0 0 -7.54883,-3.8692 z m 13.21094,7.5196 a 99.999996,99.999996 0 0 1 4.69922,3.3261 99.999998,99.999998 0 0 0 -4.69922,-3.3261 z m 7.61914,5.6582 a 99.999996,99.999996 0 0 1 4.96484,4.3164 99.999998,99.999998 0 0 0 -4.96484,-4.3164 z m 7.08008,6.3808 a 99.999996,99.999996 0 0 1 5.07226,5.3926 99.999998,99.999998 0 0 0 -5.07226,-5.3926 z m 6.41797,7.002 a 99.999996,99.999996 0 0 1 4.99023,6.4922 99.999998,99.999998 0 0 0 -4.99023,-6.4922 z m 5.78125,7.6562 a 99.999996,99.999996 0 0 1 4.6875,7.5645 99.999998,99.999998 0 0 0 -4.6875,-7.5645 z"
           id="path980"
           transform="scale(0.26458333)" />
        <path
           inkscape:connector-curvature="0"
           style="opacity:1;fill:#ffffff;fill-opacity:1;stroke:none;stroke-width:2.11076665;stroke-linecap:round;stroke-linejoin:round;stroke-miterlimit:4;stroke-dasharray:none;stroke-dashoffset:50;stroke-opacity:1;paint-order:stroke fill markers"
           d="m 560.53516,1017.0371 -50.2793,85.3242 -30.11328,52.5606 c 30.94008,17.8632 66.0841,27.9624 98.25586,5.6133 17.11809,-11.8917 27.03527,-32.2517 30.58398,-47.3672 a 100,100 0 0 0 -48.44726,-96.1309 z"
           id="circle1136"
           transform="scale(0.26458333)" />
        <path
           id="path1288"
           d="m 148.29638,282.7171 -6.0697,10.3003 -3.63526,6.34509 c 3.73507,2.15644 7.97764,3.37561 11.8614,0.67763 2.06648,-1.43555 3.26368,-3.89341 3.69208,-5.71815 a 12.071951,12.071951 0 0 0 -5.84852,-11.60487 z"
           style="opacity:1;fill:#ffffff;fill-opacity:1;stroke:none;stroke-width:0.25481069;stroke-linecap:round;stroke-linejoin:round;stroke-miterlimit:4;stroke-dasharray:none;stroke-dashoffset:50;stroke-opacity:1;paint-order:stroke fill markers"
           inkscape:connector-curvature="0" />
      </g>
      <path
         sodipodi:nodetypes="cccscccccccccccccccccccccccccccccccccc"
         inkscape:connector-curvature="0"
         style="opacity:1;fill:#ffffff;fill-opacity:1;stroke:none;stroke-width:0.55860442;stroke-linecap:round;stroke-linejoin:round;stroke-miterlimit:4;stroke-dasharray:none;stroke-dashoffset:50;stroke-opacity:1;paint-order:stroke fill markers"
         d="m 136.55078,256.88401 c -0.57868,-0.0131 -1.15764,-0.007 -1.73594,0.0175 -9.00128,0.42501 -17.16786,5.39912 -21.67351,13.20093 -7.30924,12.65597 -2.97184,28.83929 9.68781,36.14632 12.65972,7.30707 28.84769,2.97067 36.15663,-9.68557 4.16518,-7.23765 4.00731,-15.58618 0.69711,-23.25242 l -4.55362,8.60081 c -0.73074,-3.22927 -2.75598,-6.01682 -5.60177,-7.71032 l -6.0722,10.30109 -3.63629,6.34593 c 2.7762,1.60238 5.83236,2.686 8.81363,2.03107 -4.81034,6.33145 -13.57828,8.10177 -20.46951,4.13294 -7.55713,-4.36189 -10.14637,-14.02243 -5.78322,-21.5774 2.81703,-4.86181 8.00534,-7.86169 13.62549,-7.87827 l 5.79046,-10.02564 c -1.72239,-0.39007 -3.4795,-0.60683 -5.24507,-0.64704 z m 8.28944,1.5029 c 0.41478,0.15078 0.82571,0.3119 1.23243,0.48322 -0.40672,-0.17132 -0.81765,-0.33244 -1.23243,-0.48322 z m 2.44522,0.9995 c 0.6802,0.31287 1.34681,0.65445 1.99804,1.02382 -0.65123,-0.36937 -1.31784,-0.71095 -1.99804,-1.02382 z m 3.49671,1.98974 c 0.42296,0.28138 0.83774,0.57487 1.2438,0.88011 -0.40606,-0.30524 -0.82084,-0.59873 -1.2438,-0.88011 z m 2.01665,1.4972 c 0.45045,0.36621 0.88872,0.74713 1.31411,1.14216 -0.42539,-0.39503 -0.86366,-0.77595 -1.31411,-1.14216 z m 0.28648,2.58138 c 0.46498,0.45891 1.40889,0.43879 1.83863,0.93083 -0.42974,-0.49204 -1.37365,-0.47192 -1.83863,-0.93083 z m 2.09561,1.5882 c 0.46355,0.55436 1.34507,1.30318 1.76171,1.89359 -0.41664,-0.59041 -1.29816,-1.33923 -1.76171,-1.89359 z m 1.76171,1.89359 c 0.44307,0.64848 0.98934,1.01869 1.37299,1.70398 -0.38365,-0.68529 -0.92992,-1.0555 -1.37299,-1.70398 z"
         id="path1305" />
      <path
         inkscape:connector-curvature="0"
         style="opacity:1;fill:#ffffff;fill-opacity:1;stroke:none;stroke-width:0.55860442;stroke-linecap:round;stroke-linejoin:round;stroke-miterlimit:4;stroke-dasharray:none;stroke-dashoffset:50;stroke-opacity:1;paint-order:stroke fill markers"
         d="m 149.53938,260.57405 -13.30808,22.57743 -7.97047,13.90793 c 8.18931,4.72674 17.49134,7.39906 26.00666,1.48532 4.53086,-3.14663 7.15577,-8.53404 8.09506,-12.53372 a 26.4683,26.460757 0 0 0 -12.82317,-25.43696 z"
         id="path1307" />
      <path
         id="path1309"
         d="m 149.52749,274.20133 -6.07198,10.30124 -3.63663,6.34567 c 3.73648,2.15664 7.98064,3.37592 11.86587,0.67769 2.06726,-1.43568 3.26491,-3.89376 3.69347,-5.71867 a 12.076499,12.073057 0 0 0 -5.85073,-11.60593 z"
         style="opacity:1;fill:#ffffff;fill-opacity:1;stroke:none;stroke-width:0.25487036;stroke-linecap:round;stroke-linejoin:round;stroke-miterlimit:4;stroke-dasharray:none;stroke-dashoffset:50;stroke-opacity:1;paint-order:stroke fill markers"
         inkscape:connector-curvature="0" />
    </g>
  </g>
</svg>
